<svg xmlns="http://www.w3.org/2000/svg" viewBox="0 0 466.219 450" xml:space="preserve"><path style="fill:rgba(0,0,0,.2)" d="m375.28 361.3-55.965-32.368 8.687-5.015c3.437-1.984 3.81-4.986.834-6.704l-67.067-38.819c-2.976-1.718-8.175-1.503-11.612.481l-8.702 5.025-62.548-36.176c-2.668-1.54-7.329-1.347-10.41.432l-1.577.911c-3.081 1.779-3.416 4.47-.747 6.01l62.548 36.176-8.698 5.022c-3.437 1.984-3.81 4.986-.834 6.704l67.067 38.819c2.976 1.718 8.175 1.503 11.612-.481l8.714-5.031 55.965 32.368c2.668 1.541 7.329 1.348 10.41-.432l1.577-.91c3.08-1.78 3.415-4.471.746-6.012"/><path style="fill:#404040" d="M264.364 237.755v46.904c0 1.207-.71 2.302-1.812 2.795l-21.873 10.744v-.329l-6.802.488.027 4.45c.041.618.446 1.233 1.275 1.711l50.295 29.038c1.884 1.087 4.982.98 6.603-.228l21.073-15.744a5.2 5.2 0 0 0 2.091-4.165v-46.291z"/><linearGradient id="a" gradientUnits="userSpaceOnUse" x1="293.253" y1="261.426" x2="261.065" y2="320.51"><stop offset="0" style="stop-color:#636363"/><stop offset=".494" style="stop-color:#e6e6e6"/><stop offset="1" style="stop-color:#e6e6e6"/></linearGradient><path style="fill:url(#a)" d="M260.498 236.363v46.904c0 1.208-.71 2.302-1.812 2.795l-23.112 10.332c-2.093.936-2.279 2.724-.395 3.812l50.295 29.038c1.884 1.087 4.982.98 6.603-.228l17.208-12.823a5.2 5.2 0 0 0 2.09-4.164v-46.291z"/><path style="fill:#737373" d="M368.917 153.997 181.482 45.781c-2.233-1.289-4.281-1.421-5.885-.598v-.001l-.009.005-.097.056-4.595 2.668 1.164 2.098.421-.115a13.7 13.7 0 0 0-.304 2.92v144.922c0 6.851 4.165 14.81 9.304 17.776l187.435 108.215c.122.07.24.121.36.184l.638 3.239 5.284-3.07c1.853-1.198 3.021-3.769 3.021-7.386V171.772c.002-6.85-4.164-14.808-9.302-17.775"/><path style="fill:#ccc" d="M364.095 326.518 176.661 218.303c-5.139-2.967-9.304-10.925-9.304-17.777v-68.043l206.042 118.958v68.043c0 6.852-4.165 10.001-9.304 7.034"/><path style="fill:#8c8c8c" d="m318.987 220.025-.22 72.296c0 1.591-1.126 2.228-2.522 1.42l-147.113-84.904c-1.126-2.693-1.787-5.582-1.787-8.299v-68.061z"/><path style="fill:#404040" d="M373.399 305.317 167.357 186.359V55.605c0-6.851 4.165-10 9.304-7.034l187.435 108.216c5.138 2.967 9.304 10.925 9.304 17.777z"/><path style="fill:#262626" d="M373.399 174.56v10.263l-10.116-5.841v-6.574a6.22 6.22 0 0 0-3.101-5.381l-16.896-9.754.029-12.484 20.78 11.994c5.136 2.975 9.304 10.928 9.304 17.777"/><path style="fill:#6d64ff" d="M359.862 288.415 180.044 184.596a6.21 6.21 0 0 1-3.106-5.379V65.19c0-1.757 1.903-2.856 3.425-1.977l179.819 103.818a6.21 6.21 0 0 1 3.106 5.379v114.027c-.001 1.758-1.904 2.856-3.426 1.978"/><path style="fill:#1a1a1a" d="m318.718 264.656-.025 9.083-151.349-87.377V84.712l9.597 5.533v88.968a6.18 6.18 0 0 0 3.109 5.386z"/><path style="fill:#372fc2" d="m318.987 175.149-.269 89.507-138.667-80.057a6.18 6.18 0 0 1-3.109-5.386V90.245l139.524 80.571c1.395.807 2.521 2.742 2.521 4.333"/><path style="fill:#f2f2f2" d="m312.729 159.008-157.011-90.65c-.699-.404-1.334-.441-1.792-.175l-4.251 2.471c.459-.267 1.094-.229 1.792.175l157.011 90.651c1.394.805 2.515 2.746 2.511 4.349l-.332 117.148c-.002.793-.283 1.352-.735 1.616l4.252-2.471c.453-.263.733-.823.736-1.616l.332-117.148c.003-1.603-1.118-3.545-2.513-4.35"/><path style="fill:#ccc" d="M308.478 161.479c1.394.805 2.515 2.746 2.511 4.349l-.332 117.148c-.004 1.593-1.133 2.245-2.527 1.44l-157.011-90.65c-1.387-.8-2.515-2.755-2.511-4.349l.332-117.148c.004-1.602 1.14-2.241 2.527-1.44z"/><path style="fill:#fa0" d="m310.997 165.833-.036 13.458L148.91 85.728l.036-13.458c0-1.609 1.126-2.234 2.52-1.448l157.011 90.65c1.394.805 2.52 2.753 2.52 4.361"/><path style="fill:#ffea00" d="m312.73 159.006-6.917-3.986-150.094-86.664c-.697-.393-1.34-.447-1.787-.179l-4.254 2.484c.447-.268 1.09-.232 1.787.161l153.108 88.391 3.903 2.259c1.394.804 2.52 2.752 2.52 4.361l-.036 13.458 4.236-2.449.036-13.494c.018-1.59-1.107-3.538-2.502-4.342"/><path style="fill:#0d0d0d" d="M160.645 82.331c1.789 1.033 3.228 3.532 3.222 5.58-.006 2.056-1.454 2.881-3.243 1.848-1.782-1.029-3.228-3.525-3.222-5.58.006-2.048 1.461-2.877 3.243-1.848m9.436 5.534c1.782 1.029 3.228 3.532 3.222 5.581-.006 2.056-1.46 2.877-3.243 1.848-1.789-1.033-3.228-3.525-3.222-5.58.006-2.049 1.454-2.882 3.243-1.849m9.437 5.689c1.789 1.033 3.228 3.532 3.222 5.58-.006 2.056-1.454 2.881-3.243 1.848-1.782-1.029-3.228-3.525-3.222-5.58.005-2.048 1.46-2.877 3.243-1.848"/><path style="fill:#fff" d="M159.964 79.819c-.897-.518-1.711-.565-2.299-.224l-1.469.853c.588-.342 1.402-.294 2.299.223 1.789 1.033 3.228 3.532 3.222 5.581-.003 1.021-.362 1.739-.941 2.076l1.468-.854c.58-.337.938-1.054.941-2.076.007-2.047-1.432-4.546-3.221-5.579"/><path style="fill:#e6e6e6" d="M158.496 80.672c1.789 1.033 3.228 3.532 3.222 5.581-.006 2.056-1.454 2.881-3.243 1.848-1.782-1.029-3.228-3.525-3.222-5.581.006-2.048 1.461-2.877 3.243-1.848"/><path style="fill:#fff" d="M169.401 85.353c-.899-.519-1.713-.567-2.3-.226l-1.468.853c.587-.341 1.4-.293 2.3.226 1.782 1.029 3.228 3.532 3.222 5.581-.003 1.02-.363 1.737-.942 2.073l1.468-.853c.579-.337.939-1.053.942-2.074.005-2.048-1.44-4.551-3.222-5.58"/><path style="fill:#e6e6e6" d="M167.932 86.206c1.782 1.029 3.228 3.532 3.222 5.581-.006 2.056-1.46 2.877-3.243 1.848-1.789-1.033-3.227-3.525-3.222-5.581.006-2.048 1.454-2.88 3.243-1.848"/><path style="fill:#fff" d="M178.837 91.041c-.897-.518-1.711-.565-2.299-.223l-1.468.853c.588-.341 1.402-.294 2.299.224 1.789 1.033 3.228 3.532 3.222 5.581-.003 1.021-.362 1.739-.941 2.076l1.468-.853c.58-.337.939-1.054.942-2.076.005-2.049-1.434-4.548-3.223-5.582"/><path style="fill:#e6e6e6" d="M177.369 91.895c1.789 1.033 3.228 3.532 3.222 5.581-.006 2.056-1.454 2.881-3.243 1.848-1.782-1.029-3.228-3.525-3.222-5.581.005-2.048 1.46-2.877 3.243-1.848"/><path d="M198.781 176.589v6.97l-6.97-4.022v14.784l-7.859-4.537V175l-24.716-14.269v-.093l32.493-28.291.082.049v40.168zm-14.829-8.563v-19.064l-12.885 11.627zm31.318 36.355q-5.064-6.692-7.899-15.396-2.837-8.704-2.836-18.186-.001-15.157 5.959-19.668 5.953-4.512 16.407 1.616c4.377 2.526 8.25 6.004 11.627 10.433q5.065 6.644 7.903 15.347 2.834 8.704 2.836 18.097-.002 9.673-2.836 15.097-2.838 5.434-7.903 6.228c-3.377.53-7.25-.5-11.627-3.09-4.374-2.527-8.255-6.019-11.631-10.478m22.123 1.753q3.687-4.01 3.769-14.377-.082-10.182-3.769-18.31-3.69-8.127-10.571-12.101-6.811-3.928-10.455.011c-2.429 2.627-3.675 7.328-3.728 14.116.052 6.914 1.299 13.105 3.728 18.564q3.643 8.2 10.455 12.127 6.88 3.977 10.571-.03m55.385 24.725v6.97l-6.97-4.023v14.784l-7.858-4.537v-14.784L253.232 215v-.093l32.493-28.291.082.048v40.168zm-14.829-8.564v-19.063l-12.885 11.627z"/><path style="fill:rgba(0,0,0,.2)" d="M166.823 328.288 52.928 262.403c-1.733-1.001-1.515-2.748.485-3.903l10.293-5.943c2.001-1.155 5.028-1.281 6.761-.28l113.895 65.884c1.733 1.001 1.516 2.748-.485 3.903l-10.293 5.943c-2.001 1.156-5.028 1.281-6.761.281"/><path style="fill:#404040" d="M177.804 317.309v1.609c-.004 1.434-.947 2.866-2.83 3.96-3.792 2.204-9.957 2.204-13.781-.004-1.921-1.109-2.88-2.564-2.876-4.017v-1.609c-.004 1.453.955 2.908 2.876 4.017 3.824 2.208 9.99 2.208 13.781.004 1.883-1.094 2.826-2.525 2.83-3.96"/><path style="fill:#737373" d="M174.922 313.286c3.824 2.208 3.844 5.779.053 7.983s-9.957 2.203-13.781-.004c-3.816-2.203-3.837-5.775-.045-7.978 3.791-2.204 9.957-2.204 13.773-.001"/><path style="fill:#262626" d="M170.891 315.602c1.577.911 1.585 2.383.022 3.292-1.564.909-4.106.909-5.683-.002-1.574-.909-1.582-2.382-.019-3.29 1.563-.909 4.106-.909 5.68 0m6.911 1.712v1.609c0 1.431-.947 2.861-2.832 3.953-1.904 1.112-4.407 1.663-6.911 1.653v-1.609c2.503.01 5.007-.541 6.911-1.653 1.885-1.092 2.832-2.523 2.832-3.953"/><path style="fill:#404040" d="M171.646 240.572v76.545c-.001.528-.348 1.054-1.041 1.457-1.395.811-3.663.811-5.07-.002-.707-.408-1.06-.943-1.058-1.478v-76.545c-.002.535.351 1.07 1.058 1.478 1.407.812 3.675.812 5.07.002.693-.403 1.039-.93 1.041-1.457"/><path style="fill:#262626" d="M171.643 240.572v76.541c0 .53-.342 1.059-1.042 1.458-.701.407-1.621.611-2.541.611v-76.549c.92.008 1.841-.196 2.541-.603s1.042-.928 1.042-1.458"/><path style="fill:#737373" d="M170.585 239.091c1.407.812 1.415 2.126.019 2.937-1.395.811-3.663.811-5.07-.002-1.404-.811-1.412-2.125-.017-2.935s3.664-.81 5.068 0"/><path style="fill:#404040" d="M170.681 236.15v3.922c-.001.386-.255.77-.761 1.065-1.019.592-2.677.592-3.705-.001-.516-.298-.774-.689-.773-1.08v-3.922c-.001.391.257.782.773 1.08 1.028.594 2.686.594 3.705.001.506-.295.76-.68.761-1.065"/><path style="fill:#737373" d="M169.906 235.068c1.028.594 1.034 1.554.014 2.146-1.019.592-2.677.592-3.705-.001-1.026-.592-1.032-1.553-.012-2.145 1.019-.592 2.677-.592 3.703 0"/><path style="fill:#262626" d="M170.682 236.15v3.926c0 .383-.253.766-.766 1.059-.513.301-1.181.448-1.857.448v-3.926c.676 0 1.344-.147 1.857-.44.514-.294.766-.685.766-1.067"/><path style="fill:#404040" d="M77.763 259.502v1.609c-.004 1.434-.947 2.866-2.83 3.96-3.792 2.203-9.957 2.203-13.781-.004-1.921-1.109-2.88-2.564-2.876-4.017v-1.609c-.004 1.453.955 2.908 2.875 4.017 3.824 2.208 9.99 2.208 13.781.004 1.884-1.095 2.827-2.526 2.831-3.96"/><path style="fill:#737373" d="M74.881 255.479c3.824 2.208 3.844 5.779.052 7.983s-9.957 2.203-13.781-.004c-3.816-2.203-3.837-5.775-.045-7.978 3.792-2.205 9.958-2.205 13.774-.001"/><path style="fill:#262626" d="M70.85 257.794c1.577.911 1.585 2.383.021 3.292s-4.106.909-5.683-.002c-1.574-.909-1.582-2.382-.019-3.29s4.107-.909 5.681 0m6.911 1.712v1.609c0 1.431-.947 2.861-2.832 3.953-1.904 1.111-4.408 1.662-6.911 1.653v-1.609c2.503.01 5.007-.541 6.911-1.653 1.885-1.092 2.832-2.522 2.832-3.953"/><path style="fill:#404040" d="M71.605 182.764v76.545c-.002.528-.349 1.054-1.041 1.457-1.395.811-3.664.811-5.071-.002-.707-.408-1.06-.943-1.058-1.478v-76.545c-.002.535.351 1.07 1.058 1.478 1.407.813 3.675.813 5.071.002.692-.403 1.039-.93 1.041-1.457"/><path style="fill:#262626" d="M71.602 182.764v76.541c0 .529-.342 1.059-1.043 1.458-.7.407-1.621.611-2.541.611v-76.55c.92.008 1.841-.195 2.541-.603.701-.406 1.043-.927 1.043-1.457"/><path style="fill:#737373" d="M70.544 181.283c1.407.812 1.414 2.126.019 2.937s-3.664.811-5.071-.002c-1.404-.811-1.412-2.125-.017-2.935 1.397-.81 3.665-.81 5.069 0"/><path style="fill:#404040" d="M70.639 178.342v3.922c-.001.386-.255.771-.761 1.065-1.019.592-2.677.592-3.705-.001-.516-.298-.774-.689-.773-1.08v-3.922c-.001.391.257.782.773 1.08 1.028.594 2.686.594 3.705.001.507-.295.76-.68.761-1.065"/><path style="fill:#737373" d="M69.865 177.26c1.028.594 1.034 1.554.014 2.146-1.019.592-2.677.592-3.705-.001-1.026-.592-1.032-1.552-.012-2.145 1.019-.592 2.677-.592 3.703 0"/><path style="fill:#262626" d="M70.641 178.342v3.926c0 .383-.253.766-.766 1.059-.513.301-1.181.448-1.857.448v-3.926c.676 0 1.344-.146 1.857-.44.514-.293.766-.684.766-1.067"/><path style="fill:#d9d9d9" d="m174.505 256.971-.057 20.01c-.003.88-.313 1.498-.814 1.789l4.403-2.559c.501-.291.811-.909.814-1.789l.057-20.01z"/><path style="fill:#f2f2f2" d="M176.12 249.581 60.147 182.624c-.777-.449-1.482-.49-1.99-.194l-4.403 2.559c.509-.296 1.214-.254 1.991.194l115.973 66.957c1.544.891 2.794 3.056 2.789 4.83l4.403-2.559c.004-1.774-1.246-3.938-2.79-4.83"/><path style="fill:#e6e6e6" d="M171.717 252.141c1.544.891 2.794 3.056 2.789 4.83l-.057 20.01c-.005 1.775-1.263 2.485-2.807 1.593L55.668 211.617c-1.544-.892-2.794-3.049-2.789-4.824l.057-20.01c.005-1.774 1.263-2.491 2.807-1.6z"/><path style="fill:#ff3d44" d="m73.183 195.252-20.304 10.88.036-12.174 9.344-5.007zm19.752 11.406-23.786 12.745-10.906-6.301 23.785-12.745zm19.76 11.407L88.909 230.81l-10.906-6.301 23.785-12.745zm19.76 11.406-23.785 12.754-10.916-6.31 23.786-12.745zm19.76 11.406-23.785 12.754-10.916-6.31 23.786-12.745zm19.742 11.415-23.768 12.745-10.915-6.301 23.785-12.745 10.657 6.149c.081.045.161.099.241.152m2.535 8.497-.036 12.156-6.515 3.499-10.897-6.301z"/><path style="fill:#ff999d" d="m77.637 192.717-4.436 2.544-10.942-6.31 4.418-2.553zm19.751 11.407-4.427 2.543-10.951-6.319 4.418-2.552zm19.751 11.406-4.426 2.544-10.951-6.319 4.418-2.553zm19.752 11.406-4.427 2.544-10.951-6.319 4.427-2.553zm19.751 11.398-4.436 2.543-10.942-6.319 4.418-2.552zm19.742 11.415-4.436 2.544c-.08-.053-.152-.107-.232-.152l-10.692-6.176 4.418-2.553 10.674 6.167c.09.054.179.107.268.17"/><path style="fill:#cc0007" d="m178.901 258.263-.044 12.192-4.401 2.535.036-12.183z"/><path style="fill:#e6c1c2" d="m141.265 244.119-8.532 11.987-33.746-19.484-8.443-21.786 4.819-6.774 41.136 23.75z"/><path style="fill:#e6c1c2" d="m140.917 229.259-4.418 2.553-16.511-9.532 4.418-2.553z"/><path style="fill:#ff9000" d="m133.652 246.757 4.535-2.635-12.752 17.913-4.535 2.636z"/><path style="fill:#ffae00" d="m121.043 214.202 4.535-2.635 12.609 32.555-4.535 2.635z"/><path style="fill:#ffed29" d="m95.682 199.56 4.535-2.635 25.361 14.642-4.535 2.635z"/><path style="fill:#fc0" d="m121.043 214.202 12.609 32.555-12.752 17.914-25.361-14.643-12.604-32.552 12.747-17.916z"/><path style="fill:#fff480" d="M120.9 263.732 95.539 249.09 83.17 217.145l-.235.331 12.604 32.552 25.361 14.643 12.752-17.914-.235-.607z"/><path style="fill:#404040" d="M131.654 245.837c0 1.03-.728 1.445-1.625.927-.898-.518-1.625-1.773-1.625-2.803s.728-1.445 1.625-.927c.898.518 1.625 1.773 1.625 2.803m-43.558-25.156c0 1.03-.728 1.445-1.625.927-.898-.518-1.625-1.773-1.625-2.803s.728-1.445 1.625-.927 1.625 1.773 1.625 2.803"/><path d="m96.45 227.35.767 1.857a3.3 3.3 0 0 1-1.277-.029 4.4 4.4 0 0 1-1.329-.514 7.8 7.8 0 0 1-2.151-1.824 8.6 8.6 0 0 1-1.419-2.428 7.3 7.3 0 0 1-.501-2.604q.001-1.251.545-1.971c.362-.479.859-.741 1.492-.778q.946-.06 2.07.591 1.447.836 2.421 2.371.97 1.534 1.329 3.483l-5.858-1.026q.322.821.866 1.494a4.5 4.5 0 0 0 1.241 1.074q.929.535 1.804.304m-3.605-6.403q-.662.435-.661 1.705 0 .31.018.483l4.302.661a5.8 5.8 0 0 0-.758-1.567 3.7 3.7 0 0 0-1.222-1.134q-1.02-.59-1.679-.148m10.041 4.587a2.26 2.26 0 0 1 1.116-.176q.589.054 1.037.29l-.073 1.866q-.805-.504-1.455-.473-.654.034-1.017.549-.367.518-.367 1.336v3.874l-1.661-.96v-8.482l1.483.857.123 2.079q.29-.53.814-.76m6.713 3.877a2.3 2.3 0 0 1 1.118-.176q.588.054 1.035.29l-.073 1.865q-.802-.504-1.455-.473a1.27 1.27 0 0 0-1.017.549q-.365.518-.365 1.336v3.874l-1.661-.96v-8.481l1.481.857.125 2.079q.286-.532.812-.76m3.858 3.322q.525-.73 1.463-.782c.626-.035 1.329.171 2.116.626a7.7 7.7 0 0 1 2.098 1.806 9 9 0 0 1 1.428 2.441q.51 1.322.51 2.591t-.51 2.01-1.437.8q-.93.055-2.127-.633a8 8 0 0 1-2.087-1.771 8.7 8.7 0 0 1-1.455-2.426 7.2 7.2 0 0 1-.527-2.683q.002-1.248.528-1.979m1.464 4.625q.313.857.857 1.562c.362.466.765.831 1.206 1.083q1.035.597 1.714.149.676-.447.677-1.699 0-1.249-.677-2.492-.68-1.24-1.714-1.839c-.455-.261-.857-.36-1.215-.301q-.536.09-.848.585-.313.496-.312 1.297 0 .8.312 1.655m10.799 1.36a2.3 2.3 0 0 1 1.118-.176q.588.054 1.035.29l-.073 1.865q-.802-.504-1.455-.473a1.26 1.26 0 0 0-1.018.549q-.365.518-.365 1.336v3.874l-1.661-.96v-8.481l1.481.857.125 2.079c.191-.356.464-.606.813-.76"/><path style="fill:rgba(0,0,0,.2)" d="m225.105 387.944-23.769-13.694c-.795-.459-1.996-.508-2.684-.111l-9.436 5.426-82.041-47.245 10.225-5.88c.688-.397.602-1.091-.193-1.549l-23.769-13.694c-.794-.459-1.996-.508-2.684-.111l-27.502 15.815c-.688.397-.602 1.091.193 1.549l23.769 13.694c.794.459 1.996.508 2.684.111l4.1-2.358 82.04 47.245-4.889 2.812c-.688.397-.602 1.091.193 1.549l23.769 13.694c.794.459 1.996.508 2.684.111l27.502-15.815c.689-.397.602-1.091-.192-1.549"/><path style="fill:#c2c3c7" d="M95.31 313.313a6 6 0 0 0-.63-.315l-12.139-5.232-.023 7.979 12.139 5.232q.337.145.63.315c1.079.623 1.698 1.471 1.695 2.464l.023-7.979c.003-.993-.616-1.841-1.695-2.464"/><path style="fill:gray" d="M93.874 330.648c-6.625 0-11.39-1.502-14.788-3.464-6.393-3.691-7.87-8.743-7.947-9.009l-.023 7.979c.077.266 1.554 5.318 7.947 9.009 3.398 1.962 8.163 3.464 14.788 3.464 2.894 0 5.663.702 7.716 1.888l.023-7.979c-2.053-1.185-4.821-1.888-7.716-1.888"/><path style="fill:#c7c7c7" d="m171.962 373.165-.022 7.98-70.372-40.63.022-7.979z"/><path style="fill:gray" d="M205.169 376.74c-1.191-.688-2.852-1.048-4.556-.971-3.952.18-7.445 1.057-10.183 2.504-1.248.658-1.918 1.572-1.921 2.502l-.023 7.979c.003-.93.673-1.843 1.921-2.502 2.738-1.446 6.231-2.323 10.183-2.504 1.704-.076 3.365.284 4.556.971q.293.17.545.364l.022-7.979a5 5 0 0 0-.544-.364"/><path style="fill:#c7c7c7" d="m214.787 384.118-.023 7.979-9.072-7.014.023-7.979z"/><path style="fill:gray" d="M216.957 380.562c-.514 2.237-2.087 3.49-2.17 3.556l-.023 7.979c.083-.066 1.655-1.318 2.17-3.556q.145-.632.146-1.253l.023-7.979a5.7 5.7 0 0 1-.146 1.253"/><path style="fill:#dedede" d="M190.43 378.272c-1.964 1.035-2.496 2.703-1.252 4.069l7.676 8.416c-.459-.044-9.186-.882-15.58-4.574-3.398-1.962-6.007-4.717-6.029-8.555-.009-1.676-1.231-3.278-3.284-4.463l-70.372-40.629c-2.053-1.185-4.822-1.887-7.716-1.887-6.625 0-11.39-1.502-14.788-3.464-6.393-3.691-7.87-8.744-7.947-9.01l14.554 4.419c2.362.716 5.245.405 7.026-.736 2.483-1.593 3.986-3.62 4.266-5.765.149-1.129-.481-2.092-1.673-2.78a6 6 0 0 0-.63-.315l-12.139-5.232c.114-.048 2.275-.96 6.131-1.268 5.391-.427 10.523.714 14.135 2.8 2.595 1.498 4.406 3.484 4.965 5.727l1.589 6.395c.343 1.388 1.457 2.673 3.174 3.664l72.257 41.717c1.716.991 3.939 1.632 6.336 1.826l11.05.902c3.872.316 7.305 1.357 9.899 2.855 3.611 2.085 5.597 5.054 4.879 8.178-.514 2.237-2.087 3.49-2.17 3.556l-9.072-7.014a5 5 0 0 0-.545-.364c-1.191-.687-2.852-1.048-4.556-.971-3.953.18-7.446 1.057-10.184 2.503"/><path style="fill:#c7c7c7" d="m175.492 370.579-70.555-40.737 4.586-2.648 70.556 40.737z"/><path style="fill:gray" d="m109.523 328.343 69.56 40.162.996-.574-70.556-40.737-4.586 2.648.995.575zm87.332 62.414-.023 7.979c-.459-.044-9.186-.882-15.58-4.574-3.398-1.962-6.007-4.718-6.029-8.555-.009-1.677-1.231-3.278-3.284-4.463l.023-7.979c2.053 1.185 3.274 2.787 3.284 4.463.022 3.837 2.631 6.593 6.029 8.555 6.394 3.692 15.12 4.53 15.58 4.574"/><path style="fill:rgba(0,0,0,.2)" d="M358.577 418.27c-5.958 3.486-15.68 3.525-21.716.087-6.035-3.438-6.099-9.051-.141-12.537s15.68-3.525 21.716-.087 6.099 9.051.141 12.537"/><path style="fill:#262626" d="M359.994 309.673c.963 1.746 1.604 3.705 1.677 5.689.027.735-.554 1.352-1.286 1.412-1.181.098-2.367.086-3.463-.331-.611-.232-1.17-.582-1.723-.93a.3.3 0 0 1-.121-.109c-.029-.055-.022-.122-.013-.184.059-.418.175-.826.273-1.237.421-1.771.505-3.601.712-5.409.076-.667.372-1.777 1.286-1.608.338.063.699.379.966.581.341.259.639.572.903.908.298.382.555.795.789 1.218"/><path style="fill:#ffb78c" d="M331.575 331.763c.912.081 1.823-.098 2.73-.223.849-.117 1.734-.197 2.473-.631.479-.281.865-.695 1.205-1.133a9.5 9.5 0 0 0 1.429-2.59c.148-.408.268-.828.314-1.259.018-.17.023-.349-.053-.503-.077-.159-.228-.267-.38-.357-1.223-.724-2.763-.627-4.147-.302-1.255.295-2.47.76-3.601 1.378-.776.423-1.532.938-2.023 1.673-.499.747-.645 1.792-.307 2.641s1.54 1.232 2.36 1.306"/><path style="fill:#ff999d" d="M343.354 316.948c-.883.144-1.857.367-2.473.849-.925.725-1.874 1.435-2.781 2.189-1.909 1.587-3.699 3.309-5.485 5.03-.099.095-.2.194-.255.32-.06.139-.057.296-.048.448.098 1.606.743 3.135 1.573 4.514.305.506.642 1.003 1.092 1.385.473.401 1.051.659 1.634.869.77.278 1.578.487 2.397.476-.056-1.01.236-2.005.569-2.96a32.5 32.5 0 0 1 2.858-6.084c.783-1.297 1.66-2.547 2.249-3.943a8.3 8.3 0 0 0 .539-1.782c.017-.094.158-1.566-.075-1.547q-.449.038-.896.103c-.273.039-.58.081-.898.133"/><path style="fill:#fa0" d="M349.309 403.067a4.6 4.6 0 0 0-.578-.83c.004.125.007.254-.042.369-.155.367-.446.043-.663-.075a7 7 0 0 0-.816-.37c-.167-.065-1.391-.676-1.145-.935-1.403 1.47-2.999 2.742-4.492 4.122s-2.902 2.897-3.819 4.712c-.308.61-.525 1.357-.467 2.044.022.264.097.657.292.85.293.29.855.391 1.247.415.494.031.989-.055 1.467-.179 1.341-.347 2.594-.986 3.73-1.779s2.159-1.736 3.125-2.728c.259-.266.507-.55.878-.618.4-.074.801-.267 1.135-.5 1.342-.937.936-3.079.148-4.498"/><path style="fill:#333" d="m350.032 390.653-.138-10.28c-.002-.141-.005-.289-.073-.413-.041-.075-.104-.136-.165-.196l-1.713-1.67a284 284 0 0 1-2.468-23.856c-.174-2.901-.372-6-2.128-8.316-.373-.492-.971-.606-1.43-.971-.213-.17-.279-.293-.569-.368-.314-.081-.645-.049-.947-.184-.327-.146-.549-.45-.757-.741-1.059 1.654-2.1 3.353-2.644 5.24-.465 1.611-.55 3.305-.577 4.982-.072 4.485.355 8.939.827 13.393.429 4.074.951 8.094 1.822 12.109.313 1.442 3.024 13.195 3.579 15.636.28 1.233 1.271 6.319 1.53 7.62.032.162.067.329.158.466.115.172.304.277.492.366a5.5 5.5 0 0 0 3.193.448c.368-.06.735-.16 1.049-.359a.56.56 0 0 0 .203-.193.7.7 0 0 0 .058-.213c.141-.96.728-10.271.698-12.5"/><path style="fill:#ffea00" d="M346.689 414.694q-.282.45-.559.904c-.179.292-.358.589-.456.917-.255.855.232 1.383.984 1.698 1.538.643 3.311.392 4.887-.151.873-.301 1.737-.701 2.383-1.359.872-.888 1.207-2.092 1.557-3.244.335-1.102 1.21-1.905 1.777-2.88.329-.566.393-1.256.304-1.905-.118-.86-.502-1.692-1.13-2.291s-1.504-.949-2.369-.878c-.756.061-1.395.455-1.905.999-.272.29-.454.646-.637.995-.192.364-4.026 5.896-4.836 7.195"/><path style="fill:#595959" d="M359.31 349.304c-.498-1.353-1.172-2.822-2.061-3.962-.444.757-.33 1.286-1.204 1.701-.99.469-2.137.567-3.217.568-1.814.002-3.61-.286-5.405-.519-.611-.079-1.294-.067-1.891-.212-.422-.102-.725-.3-1.16-.017-.305.198-.554.496-.9.606-.638.202-1.264-.302-1.745-.769-.791 1.505-.898 3.266-.933 4.966-.029 1.431-.018 2.876.288 4.275.305 1.398.927 2.761 1.965 3.747.108.102.221.202.306.324.096.137.152.297.207.455.34.987 5.076 24.053 5.178 24.607.276 1.506.639 2.993.975 4.486q.159.703.306 1.41c.403 1.958.701 3.937.952 5.92.184 1.449.3 2.908.42 4.364.148 1.799.254 3.603.398 5.401.016.206-.045.461.062.64.106.177.368.322.543.418.411.226.878.338 1.337.413.586.096 1.185.142 1.772.058s1.165-.304 1.612-.695a.4.4 0 0 0 .111-.132c.026-.056.026-.12.027-.182.003-.38.612-6.436.906-8.53.259-1.846.724-3.507.717-5.41-.006-1.674.131-3.758-.383-5.349-.555-1.721-.973-3.202-.873-5.049.1-1.85.525-3.663.891-5.479 1.322-6.563 1.631-13.153 1.857-19.814.096-2.779-.091-5.611-1.058-8.24"/><path style="fill:#ff3d44" d="M342.7 317.002c-.413.098-.835.211-1.177.463-.394.29-.64.735-.859 1.173-2.888 5.749-3.366 12.568-2.309 18.829.218 1.29.747 2.573.669 3.878-.083 1.396-.537 2.743-1.044 4.035-.41 1.045-.905 2.142-.927 3.285-.017.878.886 1.525 1.495 2.073.74.666 1.585 1.209 2.465 1.669 5.284 2.762 11.767 2.717 17.356.64.482-.179.972-.382 1.336-.745.916-.916.007-2.29-.279-3.31-.34-1.217-.679-2.723-.336-3.975.368-1.34 1.007-2.661 1.509-3.956 1.028-2.652 2.073-5.298 3.046-7.971 1.058-2.908 2.031-5.85 2.798-8.85.151-.593.286-1.255-.014-1.788-.163-.289-.435-.499-.699-.699a184 184 0 0 0-6.141-4.453c-1.953-1.355-4.022-2.708-6.377-3.033-.267-.037-.543-.059-.8.019-.779.235-1.102 1.142-1.709 1.612-.547.424-1.061.377-1.725.376a27 27 0 0 0-6.278.728"/><path style="fill:#ffb78c" d="M348.931 318.338c-.093.466-.245.994-.495 1.401-.236.383-.232.671.111 1.037.218.233.512.383.814.487.747.259 1.566.261 2.344.118s1.522-.428 2.253-.733c1.438-.6 2.875-1.311 3.933-2.454.206-.223.404-.479.435-.78.052-.507-.37-.726-.679-1.03-.238-.233-.418-.521-.584-.807a24 24 0 0 1-2.102-4.702c-.16 1.22-1.247 2.15-2.419 2.522-1.173.372-2.433.299-3.662.256-.159-.006-.331-.007-.463.082-.24.163-.218.518-.16.802.252 1.267.936 2.486.674 3.801m-2.233-5.845c-.161-1.647.009-3.307-.052-4.96-.015-.419-.046-.843-.18-1.241-.168-.501-.48-.89-.98-1.064-.529-.184-.476-.664-.402-1.177a11.9 11.9 0 0 0-2.484 6.083c-.08.745-.016 1.395.063 2.132.084.789.138 1.584.11 2.379-.03.849-.7 1.354-1.287 1.889-.391.357-4.572 3.486-6.357 4.557-1.885 1.131-3.914 2.199-5.172 4.001-.468.671-.812 1.423-1.074 2.198-.376 1.111-.554 2.444.169 3.366.569.727 1.57.996 2.491.937 1.461-.093 2.801-.889 3.855-1.905s1.867-2.248 2.717-3.439c2.054-2.877 4.369-5.565 6.873-8.061.397-.396.825-.854.904-1.389.159-.058.311-.139.431-.256.326-.318.475-.778.537-1.229.129-.937-.07-1.881-.162-2.821"/><path style="fill:#ffe5cc" d="M343.958 307.974q-.047 1.196.09 2.385a14.2 14.2 0 0 0 1.334 4.597c.352.718.769 1.404 1.25 2.043.488.648 1.314.551 2.037.368 1.972-.498 3.757-1.552 5.443-2.691.27-.183.552-.383.683-.682.118-.27.094-.579.152-.868.097-.481.327-.513.72-.557.455-.051.93-.347 1.283-.628.842-.669 1.297-1.715 1.57-2.755a11.4 11.4 0 0 0-.295-6.697c-.26-.723-.602-1.432-1.13-1.991-1.517-1.603-4.028-2.006-6.127-1.656a8 8 0 0 0-3.597 1.557 8 8 0 0 0-.736.651c-.207.208-.358.507-.555.7-.19.186-.484.112-.705.295s-.34.485-.431.749a18.2 18.2 0 0 0-.986 5.18"/><path style="fill:#262626" d="M346.901 303.165c.147-.05.286-.12.412-.221-.252.203-.268.742-.116 1.003.221.378.781.607 1.156.784 1.153.547 2.337 1.026 3.474 1.606.714.364 1.446.808 1.805 1.525.304.609.292 1.322.461 1.981s.654 1.347 1.335 1.339c.063-.745.129-1.504.421-2.192s.852-1.306 1.582-1.468c.111-.025.234-.037.332.021.09.053.14.154.181.25.406.948.792 2.581-.217 3.321.768-.564 1.29-1.419 1.574-2.329s.345-1.875.321-2.828c-.026-1.036-.152-2.079-.51-3.052a6.73 6.73 0 0 0-2.366-3.116c-1.886-1.358-4.403-1.64-6.671-1.133a8.6 8.6 0 0 0-2.173.785 7 7 0 0 0-2.051 1.68c-.554.663-1.08 1.471-1.292 2.31a7 7 0 0 0-.199 1.234c.096-.233.193-.467.329-.679.194-.305.47-.563.832-.624.456-.075.935-.046 1.38-.197"/><path style="fill:#ff999d" d="M362.779 322.766c-3.797 1.538-7.172 3.988-10.143 6.809a1.4 1.4 0 0 0-.297.355c-.096.187-.102.406-.102.617.003 1.826.372 3.65 1.079 5.333.394.938.904 1.847 1.647 2.541.968.903 2.266 1.378 3.568 1.613.153.028.312.052.463.013.164-.043.298-.156.425-.267 2.13-1.874 3.703-4.292 5.116-6.752.774-1.348 1.513-2.729 1.973-4.214a11.3 11.3 0 0 0 .475-4.398c-.069-.715-.159-1.548-.647-2.102-.542-.614-1.167-.323-1.844-.139-.584.158-1.153.365-1.713.591"/><path style="fill:#cc0007" d="M356.059 339.494c.701.436 3.662 1.39 3.364-.309-.115-.655-.434-1.311-.713-1.908-.93-1.989-1.864-3.984-3.048-5.833-.5-.782-1.113-1.586-2.006-1.839a1.54 1.54 0 0 0-.867-.013c-.763.233-.908 1.086-.94 1.772-.058 1.236.231 2.468.68 3.62.341.877.772 1.715 1.226 2.538.345.626.899 1.033 1.478 1.428.27.184.545.369.826.544"/><path style="fill:#ffb78c" d="M358.101 335.984c-1.215.801-2.481 1.499-3.869 1.904l-.189.052a9.3 9.3 0 0 1-2.283.345c-.612.017-1.241-.043-1.801-.293-.827-.379-1.491-1.387-1.404-2.3.06-.655.319-1.293.732-1.801.31-.379.689-.689 1.077-.982q.721-.543 1.482-1.008c.353-.224.706-.439 1.068-.638a14 14 0 0 1 1.93-.905c.31.327.577.707.818 1.086.923 1.447 1.698 2.989 2.439 4.54"/><path style="fill:#ffb78c" d="M356.983 311.713a.64.64 0 0 0-.362.034c-.456.157-.798.558-.981 1.005.027-.167.034-.358.092-.517.042-.116.106-.211.138-.333q.14-.531.259-1.069c.159-.712.287-1.431.354-2.158a10 10 0 0 0-.074-2.551c-.034-.204-.079-.411-.192-.584s-.31-.305-.516-.286c-.044-.272-.091-.553-.241-.784s-.432-.4-.699-.331c-.24.062-.402.3-.445.544-.41.067-.747.378-.95.741s-.292.776-.378 1.182c-.282-.054-.573.084-.774.287s-.331.466-.457.724c-.499 1.021-1 2.044-1.402 3.108-.386 1.019-.68 2.07-.974 3.119-.376 1.343-.808 2.626-.92 4.019-.111 1.387-.123 2.781-.279 4.164-.098.868-.195 1.736-.276 2.606-.101 1.088-.12 7.881-.047 8.651.107 1.144.346 2.284.812 3.335.301.678.707 1.282 1.518 1.301.553.013 1.082-.231 1.548-.531 1.366-.876 2.362-2.251 3.003-3.742.259-.604.429-1.209.433-1.869.004-.649-.256-1.291-.437-1.911-.542-1.866-.845-3.789-1.101-5.712-.13-.975-.249-1.952-.382-2.927a65 65 0 0 0-.214-1.459c-.113-.711-.087-1.502.156-2.184.26-.73.815-1.174 1.431-1.583.222-.147.416-.334.6-.528q.501-.528.911-1.131c.171-.253.333-.523.382-.824.026-.157.02-.319.061-.472.077-.29.308-.509.501-.739.085-.1.168-.221.149-.351-.019-.12-.128-.214-.247-.244"/><path style="fill:rgba(0,0,0,.2)" d="m289.402 402.223-103.596-59.812c-1.346-.777-1.177-2.134.377-3.031l23.868-13.605c1.554-.897 3.905-.994 5.25-.218l103.597 59.811c1.346.777 1.177 2.134-.377 3.031l-23.868 13.605c-1.554.899-3.905.996-5.251.219"/><path style="fill:#262626" d="m313.851 378.543-.017 6.16-23.293 13.536.018-6.159z"/><path style="fill:#404040" d="m290.559 392.08-.018 6.159-97.174-55.83.017-6.159z"/><path style="fill:#737373" d="m313.851 378.543-23.292 13.537-97.175-55.83 23.293-13.536z"/><path style="fill:#404040" d="m313.846 378.547-11.409 6.63h-12.562v-20.401z"/><path style="fill:#fa0" d="m298.96 380.273-8.261 4.801c.772-.449 1.034-1.734.413-3.333l8.261-4.801c.621 1.599.359 2.884-.413 3.333m-52.218-105.62 8.261-4.801c.498-.29 1.161-.195 1.823.186l-8.261 4.801c-.662-.381-1.325-.475-1.823-.186"/><path style="fill:#fa0" d="m250.779 277.596 8.261-4.801 40.333 104.145-8.261 4.801zm-2.214-2.756 8.261-4.801c.864.499 1.726 1.489 2.214 2.756l-8.261 4.801c-.488-1.267-1.35-2.257-2.214-2.756"/><path style="fill:#ffea00" d="M248.565 274.84c.864.499 1.726 1.489 2.214 2.756l40.333 104.146c.986 2.54-.256 4.288-2.23 3.149l-81.124-46.837c-1.983-1.145-3.202-4.314-2.214-5.714l40.791-57.309c.499-.698 1.366-.69 2.23-.191"/><path style="fill:#ff3d44" d="M248.543 279.952c.784.453 1.565 1.351 2.008 2.5l36.586 94.47c.894 2.304-.232 3.89-2.022 2.856l-73.587-42.486c-1.799-1.039-2.904-3.913-2.008-5.183l37.001-51.984c.452-.633 1.238-.626 2.022-.173"/><path style="fill:#ffea00" d="M248.525 284.018c.72.416 1.438 1.241 1.845 2.296l33.605 86.773c.821 2.116-.213 3.573-1.858 2.623l-67.592-39.024c-1.652-.954-2.668-3.594-1.845-4.761l33.987-47.749c.416-.58 1.138-.573 1.858-.158"/><path d="m249.011 337.924-2.634-1.521c-.834-.481-1.51-1.773-1.51-2.885V298.63c0-1.112.676-1.623 1.51-1.142l2.634 1.521c.834.482 1.51 1.773 1.51 2.885v34.888c0 1.112-.676 1.623-1.51 1.142m2.057 10.13c0 2.139-1.511 3-3.374 1.924s-3.374-3.682-3.374-5.821 1.511-3 3.374-1.924 3.374 3.683 3.374 5.821"/><path style="fill:#6d64ff" d="m388.18 339.456-2.833 1.646c1.028.078 1.857-.132 2.525-.521l2.833-1.646c-.667.389-1.496.598-2.525.521m7.603 4.635 2.833-1.646c.994-.577 1.928-1.545 2.732-3.044l-2.833 1.646c-.804 1.499-1.738 2.467-2.732 3.044m21.007-22.437-24.896-14.42c-1.254-.724-2.393-.791-3.215-.313l-2.833 1.646c.822-.478 1.961-.411 3.215.313l24.896 14.42c2.496 1.441 4.51 4.93 4.502 7.79l-.037 16.305c-.004 1.42-.506 2.42-1.315 2.891l2.833-1.646c.81-.471 1.312-1.471 1.315-2.891l.037-16.305c.008-2.86-2.007-6.349-4.502-7.79"/><path style="fill:#a49eff" d="M413.957 323.3c2.496 1.441 4.51 4.93 4.502 7.79l-.037 16.305c-.008 2.861-2.036 4.016-4.531 2.575l-15.375-8.923c-2.802 5.228-7.196 3.989-10.128 2.297a16.7 16.7 0 0 1-3.04-2.241c3.399.256 4.622-2.626 5.064-4.733l-1.418-.819c-2.489-1.437-4.51-4.93-4.502-7.79l.037-16.305c.008-2.861 2.042-4.012 4.532-2.575z"/><path style="fill:#fff" d="M396.533 328.385c0 .994-.702 1.395-1.569.895s-1.569-1.712-1.569-2.706.702-1.395 1.569-.895c.866.5 1.569 1.712 1.569 2.706m3.965 2.29c0 .994-.703 1.395-1.569.895-.867-.5-1.569-1.712-1.569-2.706s.702-1.395 1.569-.895 1.569 1.712 1.569 2.706m3.966 2.289c0 .994-.702 1.395-1.569.895-.866-.5-1.569-1.712-1.569-2.706s.703-1.395 1.569-.895 1.569 1.712 1.569 2.706m3.965 2.29c0 .994-.702 1.395-1.569.895s-1.569-1.712-1.569-2.706.702-1.395 1.569-.895 1.569 1.712 1.569 2.706"/><path style="fill:#372fc2" d="M363.283 172.407v6.574l-18.96-10.948c-.587-.342-1.066-1.164-1.066-1.839l.029-8.922 16.896 9.754a6.23 6.23 0 0 1 3.101 5.381"/><path style="fill:#737373" d="m387.881 131.741-43.334-25.03c-.295-.171-.564-.187-.758-.074l-3.505 2.003c.194-.113.462-.097.758.074l43.334 25.03c.589.34 1.063 1.161 1.061 1.839l-.14 49.53c-.001.335-.12.572-.311.683l3.506-2.003c.191-.111.31-.348.311-.683l.141-49.53c.001-.677-.473-1.498-1.063-1.839"/><path style="fill:#404040" d="M384.376 133.745c.589.34 1.063 1.161 1.061 1.839l-.14 49.53c-.002.674-.479.949-1.069.609l-43.334-25.03c-.586-.338-1.063-1.165-1.061-1.839l.14-49.53c.002-.677.482-.947 1.069-.609z"/><path style="fill:#ff3d44" d="M373.922 134.498c.989.571 1.976 1.577 2.725 2.881l2.44 4.213c1.499 2.609 1.491 5.421-.018 6.281l-8.875 5.045 8.818 15.273c1.499 2.596 1.491 5.408-.018 6.268l-2.456 1.399c-.754.43-1.743.292-2.732-.28-.989-.571-1.979-1.575-2.733-2.876l-8.807-15.267-8.864 5.064c-.76.427-1.749.288-2.737-.282s-1.974-1.573-2.729-2.874l-2.429-4.219c-1.51-2.602-1.502-5.415.018-6.268l8.864-5.064-8.807-15.254c-1.51-2.602-1.502-5.415.018-6.281l2.444-1.393c.76-.433 1.749-.298 2.737.272s1.974 1.576 2.729 2.883l8.807 15.254 8.864-5.052c.76-.431 1.752-.294 2.741.277"/><path style="fill:#1a1a1a" d="M126.015 114.784 82.68 89.754c-.296-.17-.564-.187-.758-.074l-3.506 2.003c.194-.113.463-.097.758.074l43.334 25.03c.59.34 1.064 1.161 1.062 1.839l-.14 49.531c-.001.335-.119.572-.311.683l3.506-2.003c.191-.111.31-.348.311-.683l.14-49.531c.002-.678-.472-1.499-1.061-1.839"/><path style="fill:#737373" d="M122.509 116.787c.59.34 1.064 1.161 1.062 1.839l-.14 49.531c-.002.674-.479.949-1.068.609l-43.334-25.03c-.586-.339-1.063-1.165-1.062-1.839l.14-49.531c.002-.677.482-.947 1.068-.609z"/><path style="fill:#fff" d="m114.729 141.924-3.665-1.641c-.275 1.059-.696 1.965-1.245 2.702l2.289 4.644-3.451 1.962-2.875-4.308c-.919.093-1.919-.001-2.978-.304l-.428 3.971-4.864-2.812-.399-4.447a24 24 0 0 1-2.968-3.137l-2.894.975-3.425-5.938 2.312-1.984a23.6 23.6 0 0 1-1.22-4.127l-3.662-2.595.02-5.586 3.667 1.646c.277-1.057.698-1.964 1.247-2.701l-2.287-4.643 3.454-1.96 2.874 4.311c.913-.092 1.91.002 2.963.302l.426-3.973 4.862 2.807.402 4.451a23.6 23.6 0 0 1 2.968 3.133l2.894-.977 3.427 5.937-2.31 1.985a23.7 23.7 0 0 1 1.222 4.13l3.662 2.591zm-14.742-5.706c2.692 1.555 4.882.307 4.891-2.785.009-3.094-2.166-6.861-4.859-8.416-2.691-1.553-4.88-.306-4.889 2.788-.009 3.092 2.166 6.859 4.857 8.413"/><path style="fill:rgba(0,0,0,.2)" d="m116.678 183.997-39.656-22.909c-.71-.41-.62-1.125.199-1.598l4.214-2.433c.819-.473 2.058-.524 2.768-.115l39.656 22.909c.71.41.62 1.125-.199 1.598l-4.214 2.433c-.819.474-2.058.525-2.768.115"/></svg>