<svg width="21" height="17" viewBox="0 0 21 17" fill="none" xmlns="http://www.w3.org/2000/svg">
<path d="M5.00621 9.79032L0.407717 8.29204C0.407717 8.29204 -0.141853 8.06907 0.0351083 7.56347C0.071537 7.4592 0.145022 7.37049 0.36485 7.21802C1.38375 6.50782 19.2239 0.0955885 19.2239 0.0955885C19.2239 0.0955885 19.7276 -0.0741502 20.0247 0.0387473C20.0982 0.0614974 20.1643 0.103362 20.2163 0.160057C20.2683 0.216752 20.3044 0.286244 20.3207 0.361424C20.3528 0.494211 20.3662 0.630825 20.3606 0.767321C20.3592 0.8854 20.3449 0.994843 20.334 1.16647C20.2254 2.9196 16.9738 16.0038 16.9738 16.0038C16.9738 16.0038 16.7793 16.7694 16.0823 16.7956C15.911 16.8012 15.7403 16.7721 15.5805 16.7103C15.4206 16.6485 15.2749 16.5551 15.1519 16.4357C13.7841 15.2592 9.05654 12.082 8.01189 11.3833C7.98832 11.3672 7.96848 11.3463 7.95369 11.3219C7.9389 11.2976 7.92951 11.2703 7.92615 11.242C7.91155 11.1683 7.99163 11.0771 7.99163 11.0771C7.99163 11.0771 16.2236 3.75997 16.4426 2.99182C16.4596 2.93231 16.3955 2.90295 16.3095 2.92902C15.7627 3.13016 6.28467 9.11561 5.2386 9.77619C5.1633 9.79897 5.08371 9.80381 5.00621 9.79032Z" fill="#848A9C"/>
</svg>
