<svg width="20" height="16" viewBox="0 0 20 16" fill="none" xmlns="http://www.w3.org/2000/svg">
<path d="M19.6491 1.96491C18.9006 2.24561 18.152 2.52632 17.3099 2.61988C18.152 2.15205 18.807 1.30994 19.0877 0.374269C18.3392 0.842105 17.4035 1.12281 16.5614 1.30994C15.8129 0.561403 14.7836 0 13.6608 0C11.4152 0 9.63743 1.77778 9.63743 4.02339C9.63743 4.30409 9.63743 4.67836 9.73099 4.95906C6.36257 4.8655 3.36842 3.27485 1.40351 0.842105C1.02924 1.40351 0.842105 2.15205 0.842105 2.90058C0.842105 4.30409 1.59064 5.52047 2.61988 6.26901C1.96491 6.26901 1.30994 6.08187 0.748538 5.80117C0.748538 5.80117 0.748538 5.80117 0.748538 5.89474C0.748538 7.85965 2.15205 9.45029 4.02339 9.82456C3.64912 9.91813 3.36842 10.0117 2.99415 10.0117C2.71345 10.0117 2.52632 10.0117 2.24561 9.91813C2.71345 11.5088 4.21053 12.6316 5.9883 12.7251C4.58479 13.6608 2.80702 14.3158 0.935672 14.3158C0.654971 14.3158 0.280702 14.3158 0 14.2222C1.77778 15.345 3.92982 16 6.17544 16C13.5673 16 17.6842 9.91813 17.6842 4.5848C17.6842 4.39766 17.6842 4.21053 17.6842 4.02339C18.4327 3.46199 19.0877 2.80702 19.6491 1.96491Z" fill="#848A9C"/>
</svg>
