<svg width="188" height="31" viewBox="0 0 188 31" fill="none" xmlns="http://www.w3.org/2000/svg">
<path d="M18.6027 15.9173C20.0981 16.0365 21.3542 16.6327 22.4309 17.7654C23.5076 18.8981 24.0459 20.4481 24.0459 22.4154C24.0459 24.8 23.2683 26.7673 21.6533 28.1981C20.0383 29.6288 17.7653 30.3442 14.7147 30.3442H0.00012207V2.08654H14.6549C17.227 2.08654 19.3205 2.80192 20.8757 4.17308C22.4309 5.60385 23.2085 7.45192 23.2085 9.77692C23.2085 11.5654 22.73 12.9365 21.7131 14.0096C20.6963 15.0827 19.6794 15.6192 18.5429 15.7385L18.6027 15.9173ZM6.99853 13.7712H13.0997C14.1166 13.7712 14.954 13.4731 15.612 12.8769C16.2101 12.2808 16.569 11.5654 16.569 10.5519C16.569 9.65769 16.2699 9.00192 15.6718 8.46538C15.0736 7.92885 14.296 7.69038 13.3988 7.69038H6.99853V13.7712ZM13.4586 24.7404C14.5353 24.7404 15.4325 24.4423 16.0307 23.9058C16.6288 23.3692 16.9279 22.5942 16.9279 21.5808C16.9279 20.6269 16.6288 19.9115 15.9709 19.375C15.3727 18.8385 14.5353 18.5404 13.5782 18.5404H6.99853V24.7404H13.4586ZM48.2712 30.3442H41.5121V28.3173C39.8372 30.1058 37.6241 31 34.9922 31C32.4799 31 30.506 30.1654 29.0106 28.5558C27.5152 26.9462 26.7376 24.8 26.7376 22.1769V9.18077H33.437V20.7462C33.437 21.9981 33.7959 23.0115 34.4538 23.7865C35.1118 24.5615 36.009 24.9192 37.0857 24.9192C38.4615 24.9192 39.5381 24.4423 40.3157 23.4885C41.0933 22.5346 41.4522 21.0442 41.4522 19.0173V9.18077H48.2114L48.2712 30.3442ZM69.1468 30.3442H51.2022V29.0923L59.6361 14.5462H51.4414V9.18077H69.0272V10.4327L60.5932 24.9788H69.087V30.3442H69.1468ZM89.9626 30.3442H72.0778V29.0923L80.4519 14.5462H72.2572V9.18077H89.8429V10.4327L81.409 24.9788H89.9028L89.9626 30.3442ZM100.012 14.1885H112.274V20.2692H100.012V30.4038H93.0132V2.08654H113.35V8.16731H100.012V14.1885ZM161.861 21.5212H146.309C146.727 24.1442 148.701 25.6346 151.632 25.6346C153.965 25.6346 156.298 24.7404 158.033 23.3692L160.605 27.8404C158.212 29.8673 155.161 31 151.632 31C144.514 31 139.669 26.7077 139.669 19.7923C139.669 16.5135 140.746 13.8308 142.899 11.7442C145.053 9.65769 147.744 8.58462 150.915 8.58462C153.965 8.58462 156.537 9.59808 158.631 11.6846C160.724 13.7712 161.801 16.4538 161.861 19.8519V21.5212ZM148.163 14.9038C147.326 15.5 146.727 16.3346 146.428 17.3481H155.161C154.862 16.275 154.324 15.4404 153.546 14.8442C152.769 14.3077 151.872 14.0096 150.915 14.0096C149.898 14.0096 149 14.3077 148.163 14.9038ZM137.097 21.5212H121.545C121.964 24.1442 123.938 25.6346 126.869 25.6346C129.202 25.6346 131.534 24.7404 133.269 23.3692L135.841 27.8404C133.448 29.8673 130.398 31 126.869 31C119.751 31 114.906 26.7077 114.906 19.7923C114.906 16.5135 115.982 13.8308 118.136 11.7442C120.289 9.65769 122.981 8.58462 126.151 8.58462C129.202 8.58462 131.774 9.59808 133.867 11.6846C135.961 13.7712 137.037 16.4538 137.097 19.8519V21.5212ZM123.399 14.9038C122.562 15.5 121.964 16.3346 121.665 17.3481H130.398C130.099 16.275 129.56 15.4404 128.783 14.8442C128.005 14.3077 127.108 14.0096 126.151 14.0096C125.134 14.0096 124.237 14.3077 123.399 14.9038ZM188 30.3442H181.241V28.675C179.506 30.225 177.353 31 174.661 31C171.79 31 169.338 29.9269 167.304 27.8404C165.27 25.7538 164.253 23.0712 164.253 19.7923C164.253 16.5135 165.27 13.8308 167.304 11.7442C169.338 9.65769 171.79 8.58462 174.661 8.58462C177.353 8.58462 179.566 9.35962 181.241 10.9096V0H188V30.3442ZM179.746 23.7269C180.762 22.7135 181.301 21.4019 181.301 19.7923C181.301 18.2423 180.762 16.9308 179.746 15.8577C178.729 14.8442 177.473 14.3077 176.097 14.3077C174.601 14.3077 173.405 14.8442 172.448 15.8577C171.491 16.8712 171.013 18.1827 171.013 19.7923C171.013 21.4019 171.491 22.7731 172.448 23.7865C173.405 24.8 174.601 25.2769 176.097 25.2769C177.473 25.2769 178.669 24.7404 179.746 23.7269Z" fill="#848A9C"/>
</svg>
