<svg width="148" height="37" viewBox="0 0 148 37" fill="none" xmlns="http://www.w3.org/2000/svg">
<g clip-path="url(#clip0_1_760)">
<path fill-rule="evenodd" clip-rule="evenodd" d="M47.348 29.1332L49.1951 24.8927C51.1901 26.3666 53.8482 27.1328 56.4707 27.1328C58.4066 27.1328 59.632 26.3959 59.632 25.2788C59.6024 22.1555 48.0347 24.6003 47.9459 16.7686C47.9163 12.7914 51.492 9.72659 56.5595 9.72659C59.5728 9.72659 62.5802 10.4635 64.7291 12.1422L63.0005 16.4703C61.0351 15.2304 58.5901 14.3472 56.2635 14.3472C54.6829 14.3472 53.641 15.0842 53.641 16.0258C53.6706 19.0906 65.3271 17.412 65.4455 24.8927C65.4455 28.9577 61.9586 31.8178 56.9503 31.8178C53.2799 31.8119 49.9114 30.958 47.348 29.1332ZM118.276 23.3603C117.352 24.9512 115.623 26.0391 113.622 26.0391C110.668 26.0391 108.288 23.682 108.288 20.7693C108.288 17.8565 110.674 15.4994 113.622 15.4994C115.617 15.4994 117.352 16.5873 118.276 18.1782L123.373 15.3825C121.466 12.0252 117.796 9.72659 113.622 9.72659C107.448 9.72659 102.44 14.6747 102.44 20.7751C102.44 26.8755 107.448 31.8236 113.622 31.8236C117.826 31.8236 121.466 29.5543 123.373 26.1678L118.276 23.3603ZM68.0088 0.561401H74.3906V31.4025H68.0088V0.561401ZM125.877 0.561401V31.4025H132.259V22.1496L139.83 31.4025H148L138.368 20.4125L147.284 10.1594H139.469L132.253 18.6695V0.561401H125.877Z" fill="#848A9C"/>
<path d="M93.3518 23.4189C92.4283 24.9221 90.522 26.0392 88.373 26.0392C85.4189 26.0392 83.0391 23.6821 83.0391 20.7694C83.0391 17.8566 85.4249 15.4995 88.373 15.4995C90.522 15.4995 92.4283 16.6751 93.3518 18.2075V23.4189ZM93.3518 10.1653V12.6687C92.3099 10.9315 89.7169 9.72083 86.9996 9.72083C81.3933 9.72083 76.9829 14.6105 76.9829 20.7401C76.9829 26.8697 81.3933 31.8179 86.9996 31.8179C89.711 31.8179 92.3039 30.613 93.3518 28.8701V31.3734H99.7336V10.1653H93.3518Z" fill="#848A9C"/>
<path fill-rule="evenodd" clip-rule="evenodd" d="M7.90387 23.3897C7.90387 25.5421 6.14563 27.2792 3.96707 27.2792C1.78851 27.2792 0.0302734 25.5363 0.0302734 23.3897C0.0302734 21.2432 1.78851 19.5002 3.96707 19.5002H7.90387V23.3897ZM9.86931 23.3897C9.86931 21.2374 11.6276 19.5002 13.8061 19.5002C15.9847 19.5002 17.7429 21.2374 17.7429 23.3897V33.1106C17.7429 35.2629 15.9847 37.0001 13.8061 37.0001C11.6276 37.0001 9.86931 35.2629 9.86931 33.1106V23.3897Z" fill="#848A9C"/>
<path fill-rule="evenodd" clip-rule="evenodd" d="M13.8054 7.77901C11.6269 7.77901 9.86864 6.04189 9.86864 3.8895C9.86864 1.73712 11.6269 0 13.8054 0C15.984 0 17.7422 1.73712 17.7422 3.8895V7.77901H13.8054ZM13.8054 9.75008C15.984 9.75008 17.7422 11.4872 17.7422 13.6396C17.7422 15.792 15.984 17.5291 13.8054 17.5291H3.9368C1.75824 17.5291 0 15.7861 0 13.6396C0 11.493 1.75824 9.75008 3.9368 9.75008H13.8054Z" fill="#848A9C"/>
<path fill-rule="evenodd" clip-rule="evenodd" d="M29.5766 13.6396C29.5766 11.4872 31.3349 9.75008 33.5134 9.75008C35.692 9.75008 37.4502 11.4872 37.4502 13.6396C37.4502 15.792 35.692 17.5291 33.5134 17.5291H29.5766V13.6396ZM27.6112 13.6396C27.6112 15.792 25.8529 17.5291 23.6744 17.5291C21.4958 17.5291 19.7375 15.792 19.7375 13.6396V3.8895C19.7375 1.73712 21.4958 0 23.6744 0C25.8529 0 27.6112 1.73712 27.6112 3.8895V13.6396Z" fill="#848A9C"/>
<path fill-rule="evenodd" clip-rule="evenodd" d="M23.6744 29.2211C25.8529 29.2211 27.6112 30.9582 27.6112 33.1106C27.6112 35.2629 25.8529 37.0001 23.6744 37.0001C21.4958 37.0001 19.7375 35.2629 19.7375 33.1106V29.2211H23.6744ZM23.6744 27.2792C21.4958 27.2792 19.7375 25.5421 19.7375 23.3897C19.7375 21.2374 21.4958 19.5002 23.6744 19.5002H33.543C35.7216 19.5002 37.4798 21.2374 37.4798 23.3897C37.4798 25.5421 35.7216 27.2792 33.543 27.2792H23.6744Z" fill="#848A9C"/>
</g>
<defs>
<clipPath id="clip0_1_760">
<rect width="148" height="37" fill="white"/>
</clipPath>
</defs>
</svg>
